<?xml version="1.0" standalone="no"?>
<!DOCTYPE svg PUBLIC "-//W3C//DTD SVG 1.1//EN" "http://www.w3.org/Graphics/SVG/1.1/DTD/svg11.dtd" >
<svg xmlns="http://www.w3.org/2000/svg">
<metadata>
This is a custom SVG webfont generated by Font Squirrel.
Copyright   : Copyright c Alexey Kryukov 20072008 All rights reserved
Designer    : Alexey Kryukov
Foundry URL : httpwwwthessalonicaorgru
</metadata>
<defs>
<font id="webfonttMS2xVAO" horiz-adv-x="1150" >
<font-face units-per-em="2048" ascent="1579" descent="-469" />
<missing-glyph horiz-adv-x="526" />
<glyph unicode=" "  horiz-adv-x="526" />
<glyph unicode="&#x09;" horiz-adv-x="526" />
<glyph unicode="&#xa0;" horiz-adv-x="526" />
<glyph unicode="!" horiz-adv-x="526" d="M127 1343q0 70 35 121q33 47 102.5 47t102.5 -47q35 -51 34 -121q0 -119 -22 -247q-28 -166 -43 -301l-43 -406h-57l-43 406q-15 135 -43 301q-23 128 -23 247zM135 104q0 53 37 90t92 37q53 0 90 -36.5t37 -90.5q0 -55 -37 -92t-90 -37q-55 0 -92 37t-37 92z" />
<glyph unicode="&#x22;" horiz-adv-x="878" d="M545 1411q0 47 25 78q23 29 69.5 29t69.5 -29q25 -31 24 -78q0 -20 -10 -113l-55 -444h-57l-56 444q-10 93 -10 113zM170 1411q0 47 25 78q23 29 69.5 29t69.5 -29q25 -31 24 -78q0 -20 -10 -113l-55 -444h-57l-56 444q-10 93 -10 113z" />
<glyph unicode="#" d="M61 430v96h215l84 408h-299v96h318l88 430h88l-88 -430h334l88 430h88l-88 -430h201v-96h-220l-84 -408h304v-96h-322l-88 -430h-88l88 430h-336l-86 -430h-88l86 430h-195zM365 526h333l84 408h-333z" />
<glyph unicode="$" d="M74 281q0 78 43 127q45 51 112 51q37 0 66 -22.5t29 -57.5q0 -72 -84 -107q-29 -12 -43 -28q-10 -12 -11 -43q0 -49 64 -92q63 -41 162 -64v645q-55 18 -125 55q-49 27 -94 68q-43 39 -66 98q-20 53 -21 129q0 137 82 240q84 104 224 147v117h59v-100q51 10 123 10 q37 0 86 -4v94h59v-102q135 -23 222 -94q82 -68 81 -166q0 -66 -34.5 -117t-96.5 -51q-41 0 -67.5 22.5t-26.5 55.5q0 57 64 98q18 12 24 18q10 10 15 21q6 16 6 35q0 41 -54 75q-45 29 -133 50v-580q180 -57 260 -143q76 -82 76 -232q0 -168 -92 -278q-90 -109 -244 -152 v-139h-59v125q-61 -10 -123 -10q-37 0 -86 6v-121h-59v129q-59 10 -125 35q-49 18 -107 57q-49 35 -78 84q-28 52 -28 111zM219 1133q0 -82 45 -134q49 -55 148 -94v467q-88 -33 -140 -96q-53 -65 -53 -143zM471 35q43 -6 86 -6q65 0 123 12v571l-209 60v-637zM471 883 l209 -58v574q-45 6 -90 6q-63 0 -119 -14v-508zM739 57q111 37 176 113q66 74 66 180q0 92 -55 146q-59 55 -187 98v-537z" />
<glyph unicode="%" horiz-adv-x="1538" d="M80 1151q0 86 35 172q31 78 100 133q63 51 147 51q82 0 146 -51q70 -55 100 -133q35 -86 35 -172q0 -88 -35 -174q-31 -78 -100 -133q-63 -51 -146 -51q-84 0 -147 51q-70 55 -100 133q-35 86 -35 174zM213 1151q0 -41 8 -107q6 -57 21 -102q16 -53 46.5 -84t74 -31 t73.5 31q29 29 45 84q16 57 23 102q6 49 6 107q0 55 -6 104q-6 45 -23 103q-16 55 -45 84q-31 31 -74 31t-73 -31q-31 -33 -47 -84q-14 -45 -21 -103q-8 -65 -8 -104zM279 -16l884 1511h99l-887 -1511h-96zM897 330q0 88 35 174q31 78 100 133q63 51 145.5 51t145.5 -51 q72 -57 102 -133q35 -86 35 -174q0 -86 -35 -172q-33 -78 -102 -135q-63 -51 -145 -51.5t-146 51.5q-68 55 -100 135q-35 86 -35 172zM1030 330q0 -55 6 -105q6 -45 23 -102q16 -55 45 -84q31 -31 74 -31t73.5 31t46.5 84q14 45 21 102q6 49 6 105q0 57 -6 106 q-6 57 -21 103q-14 49 -47 82q-31 31 -73.5 30.5t-73.5 -31t-45 -81.5q-16 -57 -23 -103q-6 -49 -6 -106z" />
<glyph unicode="&#x26;" horiz-adv-x="1613" d="M123 367q0 76 20 137q23 70 58 121q39 57 90 106q59 55 117 96q45 31 139 88q-82 152 -82 275q0 138 86 233q86 94 203 95q115 0 166 -64q53 -66 53 -164q0 -88 -62 -174q-59 -84 -172 -155l359 -625q129 217 168 448h-248v54h563v-54h-260q-57 -289 -195 -499 q71 -120 142 -179q72 -59 149 -59q61 0 131 25l21 -58q-123 -39 -219 -39q-238 0 -353 158q-186 -158 -407 -158q-231 0 -352 121q-55 55 -84 125q-31 74 -31 146zM319 469q0 -143 70 -231q121 -156 338 -156q125 0 238 100l-390 682q-127 -78 -192 -172q-64 -90 -64 -223z M616 1288q0 -66 17 -121q14 -47 51 -112l25 -41q94 66 141 137q49 74 49 147q0 172 -137 172q-57 0 -100 -49q-46 -51 -46 -133z" />
<glyph unicode="'" horiz-adv-x="526" d="M170 1411q0 47 25 78q23 29 69.5 29t69.5 -29q25 -31 24 -78q0 -20 -10 -113l-55 -444h-57l-56 444q-10 93 -10 113z" />
<glyph unicode="(" horiz-adv-x="659" d="M143 487.5q0 245.5 93 513.5q94 276 258 510l41 -26q-129 -242 -185 -465q-53 -213 -53 -532.5t53 -532.5q55 -219 185 -463l-41 -29q-162 231 -258 512q-93 267 -93 512.5z" />
<glyph unicode=")" horiz-adv-x="659" d="M127 -508q125 236 182 463q55 221 55.5 532.5t-55.5 532.5q-57 229 -182 465l39 26q168 -240 260 -510q90 -262 90 -514q0 -250 -90 -512q-94 -274 -260 -512z" />
<glyph unicode="*" horiz-adv-x="1103" d="M147 883q0 80 150 102q82 12 164 57q20 12 20 25q0 8 -4 12q-6 6 -10 8l-6 5q-82 45 -164 57q-150 23 -150 102q0 31 23 58q23 25 59.5 24.5t63.5 -20.5q20 -16 59 -66q43 -53 125 -106q20 -14 31 -15q12 0 14 7q4 8 4 26q0 90 -30 170q-27 59 -27 94q0 39 23 68 q20 27 61 27t61 -27q23 -29 23 -68q0 -31 -29 -94q-31 -80 -30 -170q0 -18 4 -26q4 -6 14 -6.5t31 14.5q82 53 125 106q39 49 59 66q27 20 63 20q39 0 60 -24q23 -27 22 -58q0 -80 -147 -102q-86 -12 -166 -57q-20 -12 -20 -25q0 -8 4 -12t12 -8l4 -5q80 -45 166 -57 q147 -23 147 -102q0 -31 -22 -58q-20 -25 -60 -24q-37 0 -63 20q-20 16 -59 66q-43 53 -125 106q-20 14 -30.5 14.5t-14.5 -6.5q-4 -8 -4 -26q0 -90 30 -170q29 -63 29 -94q0 -39 -23 -68q-20 -27 -61 -27t-61 27q-23 29 -23 68q0 35 27 94q31 80 30 170q0 18 -4 26 q-2 6 -14 7q-10 0 -31 -15q-82 -53 -125 -106q-39 -49 -59 -66q-27 -20 -63.5 -20t-59.5 24q-23 27 -23 58z" />
<glyph unicode="+" d="M61 467v94h461v467h109v-467h459v-94h-459v-467h-109v467h-461z" />
<glyph unicode="," horiz-adv-x="526" d="M102 -389q70 63 123 131q51 66 82 133q20 43 21 98q0 53 -84 54q-47 0 -78 22q-33 25 -33 78q0 51 35 86q33 33 80 33q82 0 121 -51.5t39 -126.5q0 -113 -72 -242q-76 -135 -203 -250z" />
<glyph unicode="-" horiz-adv-x="899" d="M135 346v131h629v-131h-629z" />
<glyph unicode="." horiz-adv-x="526" d="M135 104q0 53 37 90t92 37q53 0 90 -36.5t37 -90.5q0 -55 -37 -92t-90 -37q-55 0 -92 37t-37 92z" />
<glyph unicode="/" horiz-adv-x="720" d="M80 -520l461 1954h100l-459 -1954h-102z" />
<glyph unicode="0" d="M96 700q0 98 21 199q23 109 63 203q47 109 96 176q55 78 136 125q78 47 164 47t163 -47q80 -47 135 -125q53 -76 99 -176q37 -86 61 -203q23 -109 23 -199q0 -117 -35 -245q-37 -137 -92 -232q-61 -104 -153.5 -171.5t-201.5 -67.5q-106 0 -198 67q-98 72 -154 172 q-61 111 -94 232q-33 122 -33 245zM303 700q0 -246 29 -395q28 -144 86 -209q57 -63 157 -63q102 0 160 63q58 65 86 209q27 139 27 395q0 373 -62 537q-63 166 -211 166q-145 0 -208 -166q-64 -164 -64 -537z" />
<glyph unicode="1" d="M213 1106q109 39 174 78q80 47 145 106q63 57 121 156h54v-1399h264v-47h-713v47h264v1139l-8 2q-111 -78 -281 -137z" />
<glyph unicode="2" d="M115 1026q0 178 110.5 301t298.5 123q109 0 201 -35q90 -35 145 -92q57 -59 84 -133q29 -76 29 -158q0 -92 -39 -184q-43 -104 -96 -176q-58 -80 -148 -172q-94 -98 -165 -158l-179 -147l9 -19h397q102 0 149 62q43 59 62 149l47 -6l-74 -381h-829v47q201 164 381 367 q276 315 276 637q0 150 -78 243q-77 92 -227 92q-90 0 -160 -53q-68 -51 -104 -133q-35 -76 -35 -174q0 -53 25 -78q23 -23 55 -22q39 0 69 35q37 43 76 43q43 0 67.5 -25t24.5 -68q0 -61 -43 -104t-104 -43q-98 0 -162 67q-63 66 -63 195z" />
<glyph unicode="3" d="M113 297q0 76 49 127t112 51q47 0 80 -29q31 -29 31 -77q0 -39 -20 -70q-16 -27 -62 -51q-27 -14 -31 -19q-2 -2 -20 -24q-12 -16 -12 -35q0 -51 77 -94q76 -43 191 -43q98 0 167.5 55t100.5 137q31 83 31 185q0 150 -70 241q-68 88 -180 88q-39 0 -190 -34l-13 49 q90 18 199 49q98 31 156 119q53 82 53 206q0 133 -68 203q-68 72 -170 72q-76 0 -141 -39q-61 -37 -61 -88q0 -18 10 -33q6 -8 35 -22q55 -29 55 -91q0 -43 -28.5 -71.5t-71.5 -28.5q-55 0 -93 37q-35 35 -34 100q0 49 26 97q31 53 72 92t113 67q66 27 143 27q98 0 172 -27 q76 -27 125 -73t74 -105q27 -63 26 -121q0 -68 -22 -125q-23 -59 -64 -96q-39 -37 -88 -65q-46 -28 -104 -50l4 -16q152 -25 246 -121q92 -95 92 -239q0 -135 -68 -234q-70 -102 -176 -147q-111 -47 -244 -47q-113 0 -207 34q-90 33 -147 107q-55 71 -55 172z" />
<glyph unicode="4" d="M94 459v55q111 88 170 154q63 70 133 176q147 223 199 481q6 35 12 57l17 50q8 23 22 41q12 16 33 24q25 10 45 10q80 0 80 -88q0 -80 -68 -225q-66 -139 -164 -266q-160 -206 -405 -412v-8h461v313l168 164h14v-477h231v-49h-231v-412h193v-47h-568v47h193v412h-535z " />
<glyph unicode="5" d="M123 272q0 74 39 115q40 43 98 43q59 0 86 -32.5t27 -73.5q0 -37 -11 -56q-16 -29 -38 -51q-35 -35 -35 -65q0 -59 45 -91q43 -29 143 -28q162 0 244 106q84 109 84 285q0 51 -8 137q-6 55 -27 133q-18 63 -49 115q-29 47 -82 78t-119 31q-92 0 -162 -64 q-68 -61 -125 -192l-34 6l71 770l29 12q139 -141 262 -141q35 0 72 16q31 14 59 39q27 25 53 61q28 40 43 68l43 76l35 -17q-37 -78 -78 -141q-57 -86 -92 -123q-49 -53 -110 -88q-57 -33 -117 -33q-47 0 -92 9q-34 6 -80 24l-37 -379l8 -2q104 147 283 148q211 0 336 -121 q123 -121 123 -318q0 -240 -150 -391q-152 -154 -391 -153q-144 0 -246 86q-100 85 -100 202z" />
<glyph unicode="6" d="M123 672q0 217 72 393q72 178 198 283q125 102 266 102q135 0 222 -68q88 -70 88 -165q0 -68 -33 -103q-35 -37 -84 -37q-39 0 -68 23q-27 20 -26 59q0 47 28 92q25 37 25 74q0 33 -39 53q-45 25 -115 25q-86 0 -153 -57q-63 -55 -103 -154q-33 -84 -53 -209 q-18 -111 -18 -238l6 -2q125 156 321 156q84 0 154 -24.5t117 -65.5q43 -37 76 -96q35 -61 45 -113q14 -68 14 -119q0 -132 -55 -245q-53 -111 -160 -183q-102 -70 -240 -69q-98 0 -188 45q-88 45 -155.5 127t-104.5 217q-37 131 -37 299zM330 557q0 -129 14 -215 q16 -98 45 -164q31 -70 88 -108q55 -37 137 -37q117 0 178.5 116.5t61.5 333.5q0 82 -12 146q-10 57 -41 114q-29 53 -76 80q-51 29 -113 29q-78 0 -157.5 -55.5t-110.5 -149.5q-14 -37 -14 -90z" />
<glyph unicode="7" d="M164 997l41 457h39l-11 -125l11 -2q86 113 196 113q59 0 109 -19q45 -16 74 -39q18 -14 63 -59q35 -35 90 -68q51 -31 90 -30q68 0 97 73q10 25 14 82q4 70 47 70q20 0 29 -10q12 -16 12 -27q0 -47 -66 -168q-37 -68 -133 -280l-73 -162q-29 -68 -74 -185 q-53 -135 -82 -233q-33 -113 -55 -229q-12 -53 -15 -64q-10 -37 -14 -47q-10 -31 -21 -37q-12 -10 -32 -16q-25 -8 -47 -8q-45 0 -72 20q-25 18 -25 55q0 78 76 228q80 156 199 352q166 272 266 535l-6 6q-82 -29 -170 -29q-51 0 -117 14q-71 15 -117 31q-94 33 -137 33 q-72 0 -110 -82q-29 -59 -37 -150h-39z" />
<glyph unicode="8" d="M117 330q0 121 78 207q80 88 219 159v6q-131 66 -199 146q-70 82 -70 217q0 114 62 203q63 92 155 135q100 47 213 47q170 0 291 -86q119 -86 119 -213q0 -120 -67 -209q-68 -88 -187 -162v-4q72 -35 98 -49q55 -31 89 -57q45 -37 71 -68q29 -35 47 -82q18 -46 19 -98 q0 -119 -70 -223q-68 -102 -178 -158q-115 -57 -238 -57q-117 0 -221 41q-102 41 -168 120q-63 79 -63 185zM248 334q0 -129 86 -215t235.5 -86t245.5 78q98 80 98 200q0 43 -16 86q-16 41 -41 70q-20 23 -72 57q-37 25 -90 51q-51 27 -114 54l-115 51q-104 -61 -162 -150 q-55 -83 -55 -196zM254 1139q0 -29 8 -70q6 -27 27 -55q18 -25 37 -43q20 -20 53 -37l61 -31q8 -4 74 -33l168 -71q92 57 139 129q49 74 49 176q0 119 -90 209t-231 90q-113 0 -205 -80q-90 -78 -90 -184z" />
<glyph unicode="9" d="M90 952q0 132 55 246q53 111 160 182q102 70 238 70q104 0 190 -43q82 -41 154 -129q68 -82 104 -217q39 -139 39 -299q0 -212 -73.5 -393.5t-196.5 -282.5q-125 -102 -266 -102q-133 0 -221.5 69.5t-88.5 163.5q0 68 33 102q33 37 84 37q37 0 65.5 -22.5t28.5 -59.5 q0 -43 -30 -92q-25 -37 -25 -73q0 -31 41 -53.5t113 -22.5q89 0 153 55q63 55 103 154q37 92 55 209q16 98 16 237l-6 2q-125 -156 -319 -155q-86 0 -156 24q-66 23 -115 66q-47 41 -77.5 96t-43.5 113q-14 67 -14 118zM299 950q0 -78 12 -143q12 -61 41 -117 q29 -53 76 -79.5t113 -26.5q76 0 155 55q84 57 113 147q12 33 12 91q0 141 -12 215q-14 90 -47 163.5t-88.5 110.5t-136.5 37q-115 0 -179 -119q-59 -113 -59 -334z" />
<glyph unicode=":" horiz-adv-x="526" d="M135 104q0 53 37 90t92 37q53 0 90 -36.5t37 -90.5q0 -55 -37 -92t-90 -37q-55 0 -92 37t-37 92zM135 772q0 53 37 90t92 37q53 0 90 -36.5t37 -90.5q0 -55 -37 -92t-90 -37q-55 0 -92 37t-37 92z" />
<glyph unicode=";" horiz-adv-x="526" d="M135 772q0 53 37 90t92 37q53 0 90 -36.5t37 -90.5q0 -55 -37 -92t-90 -37q-55 0 -92 37t-37 92zM102 -389q70 63 123 131q51 66 82 133q20 43 21 98q0 53 -84 54q-47 0 -78 22q-33 25 -33 78q0 51 35 86q33 33 80 33q82 0 121 -51.5t39 -126.5q0 -113 -72 -242 q-76 -135 -203 -250z" />
<glyph unicode="&#x3c;" d="M84 467v94l940 492l43 -88l-868 -451l868 -451l-43 -88z" />
<glyph unicode="=" d="M61 309v97h1029v-97h-1029zM61 623v96h1029v-96h-1029z" />
<glyph unicode="&#x3e;" d="M84 63l868 451l-868 451l43 88l940 -492v-94l-940 -492z" />
<glyph unicode="?" horiz-adv-x="851" d="M143 1309q0 90 76 147q74 55 178 55q113 0 199 -67q84 -66 129 -172q43 -100 43 -217q0 -94 -29 -170q-27 -70 -73 -115q-39 -37 -97 -61q-47 -20 -102 -21q-74 0 -123 31l-4 -4v-375h-72v496h33q18 -35 47 -62q49 -39 121 -39q152 0 152 352q0 57 -7 107q-6 43 -22 98 q-14 49 -41 84q-29 39 -64 58q-41 23 -88 22q-70 0 -90 -53q-10 -23 -10 -100q0 -74 -72 -74q-41 0 -61 20q-23 23 -23 60zM174 104q0 53 37 90t90 37q55 0 92 -36.5t37 -90.5q0 -55 -37 -92t-92 -37q-53 0 -90 37t-37 92z" />
<glyph unicode="@" horiz-adv-x="1714" d="M59 371q0 175 56 325q55 154 145 254.5t211 175.5q117 72 250 107t262 35q141 0 264 -51q126 -52 215 -142q92 -92 144 -209q55 -127 55 -250q0 -272 -129 -450t-320 -178q-102 0 -151 61q-51 63 -53 146l-11 4q-35 -82 -110 -146q-78 -66 -168 -65q-115 0 -188.5 79.5 t-73.5 221.5q0 147 53 266q55 125 162 203q108 80 246 80q66 0 114 -56q47 -53 58 -131l20 4l45 170h141l-143 -501q-29 -102 -29 -162q0 -55 21 -82q23 -29 74 -29q147 0 245 148q100 150 101 370q0 135 -49.5 254t-131 201t-192.5 131t-234 49q-143 0 -278 -55 q-127 -53 -240 -158q-108 -101 -172 -258q-63 -154 -63 -346q0 -147 37 -256q41 -121 106 -201q72 -88 156 -143q88 -57 192.5 -86t210.5 -29q86 0 180 23q89 22 160 61q57 33 123 80q49 35 96 86l50 -63q-27 -29 -101 -86q-49 -39 -133 -82q-80 -41 -176 -66 q-98 -25 -203 -24q-123 0 -239 32q-123 35 -228 101q-117 74 -192 157q-90 100 -135 215q-50 127 -50 265zM602 248q0 -39 6 -76t18.5 -67.5t37 -49t59.5 -18.5q66 0 125 53q61 55 100 133q43 84 66 166q23 78 22 156q0 215 -137 215q-76 0 -141 -66q-70 -70 -105 -164 q-31 -84 -41 -137q-10 -51 -10 -145z" />
<glyph unicode="A" horiz-adv-x="1533" d="M55 0v51h219l461 1411h62l524 -1411h180v-51h-672v51h250l-170 461h-417l-150 -461h211v-51h-498zM508 563h383l-203 547z" />
<glyph unicode="B" horiz-adv-x="1339" d="M123 0v51h190v1331h-190v52h627q233 0 342 -91q111 -92 110 -256q0 -119 -84 -200.5t-217 -106.5v-12q170 -23 266 -121q98 -102 99 -254q0 -184 -135.5 -288.5t-372.5 -104.5h-635zM522 51h215q295 0 295 352q0 162 -61 254q-59 90 -189 91h-260v-697zM522 801h260 q109 0 160 76q53 78 53 198q0 63 -12 113q-14 53 -39 96q-29 47 -82 72q-57 27 -129 26h-211v-581z" />
<glyph unicode="C" horiz-adv-x="1484" d="M145 713q0 129 39 256q35 113 105 209q63 88 151 153q86 63 189 99q98 33 205 32q150 0 280 -47q61 -23 94 -22q27 0 47 16q14 12 35 53h43v-471h-43q-37 147 -112 254q-18 27 -50 58q-18 18 -65 51q-35 25 -98 41q-55 14 -131 14q-215 0 -336 -178q-117 -174 -117 -518 q0 -340 116.5 -514t336.5 -174q76 0 131 14q63 16 98 41q47 33 65 51q31 31 50 57q76 106 112 254h43v-471h-43q-14 29 -20 37q-10 14 -25 23q-16 10 -37 10q-33 0 -94 -23q-131 -47 -280 -47q-133 0 -254 51.5t-220 143.5q-96 90 -155 235q-60 144 -60 312z" />
<glyph unicode="D" horiz-adv-x="1566" d="M123 0v51h190v1331h-190v52h719q86 0 178 -29q84 -27 172 -88q78 -55 143.5 -143.5t100.5 -202.5q37 -120 37 -258.5t-37 -257.5q-35 -111 -101 -201q-63 -84 -143 -141q-83 -58 -172 -86q-86 -27 -178 -27h-719zM522 51h273q101 0 178 37q82 39 127 96q53 68 82 146 q31 84 43 180q12 92 12 203q0 106 -12.5 202.5t-43 182.5t-81.5 149q-49 61 -127 99q-77 37 -178 36h-273v-1331z" />
<glyph unicode="E" horiz-adv-x="1425" d="M123 0v51h190v1331h-190v52h1118l10 -375h-51q-2 10 -7 32.5t-7 30.5q-4 14 -27 72q-12 31 -49 84q-74 104 -227 104h-361v-606h187q98 0 170 109q23 35 36 94q16 66 17 88h49v-633h-49q0 23 -17 88q-16 63 -36 96q-70 106 -170 107h-187v-674h336q223 0 322 135 q49 66 67 119q20 61 35 141h51l-6 -446h-1204z" />
<glyph unicode="F" horiz-adv-x="1318" d="M123 0v51h190v1331h-190v52h1118l23 -455h-52q-33 188 -108 289q-90 115 -244 114h-338v-606h172q106 0 170 107q23 37 37 106q16 76 17 103h49v-682h-49q0 25 -17 100q-16 72 -37 108q-63 106 -170 107h-172v-674h193v-51h-592z" />
<glyph unicode="G" horiz-adv-x="1558" d="M145 713q0 129 39 256q35 113 105 209q63 88 151 153q86 63 189 99q98 33 205 32q150 0 280 -47q61 -23 94 -22q27 0 47 16q14 12 35 53h43v-471h-43q-37 147 -112 254q-18 27 -50 58q-18 18 -65 51q-35 25 -98 41q-55 14 -131 14q-215 0 -336 -178q-117 -174 -117 -518 q0 -340 116.5 -514t336.5 -174q150 0 235 98q84 96 84 244v145h-281v51h715v-51h-213l-2 -512h-43q-14 33 -32.5 51.5t-49.5 18.5q-40 0 -117 -31q-168 -68 -296 -68q-133 0 -254 51.5t-220 143.5q-96 90 -155 235q-60 144 -60 312z" />
<glyph unicode="H" horiz-adv-x="1579" d="M123 0v51h190v1331h-190v52h592v-52h-193v-604h576v604h-193v52h592v-52h-190v-1331h190v-51h-592v51h193v674h-576v-674h193v-51h-592z" />
<glyph unicode="I" horiz-adv-x="784" d="M123 0v51h190v1331h-190v52h592v-52h-193v-1331h193v-51h-592z" />
<glyph unicode="J" horiz-adv-x="929" d="M96 193q0 53 37 96q35 41 92 41q49 0 76 -27t27 -70q0 -37 -31 -86q-25 -33 -25 -63q0 -20 17 -37q12 -12 45 -12q37 0 55 10q27 14 37 30.5t20 45.5q6 18 11 51q2 16 2 55v1155h-193v52h592v-52h-192v-997q0 -53 -11 -115q-10 -57 -34.5 -110.5t-63.5 -91.5 q-37 -37 -98.5 -61.5t-136.5 -24.5q-96 0 -162 55q-64 56 -64 156z" />
<glyph unicode="K" horiz-adv-x="1597" d="M123 0v51h190v1331h-190v52h592v-52h-193v-624l103 47l471 577h-234v52h506v-52h-203l-383 -471l617 -860h176v-51h-682v51h240l-498 694l-113 -51v-643h193v-51h-592z" />
<glyph unicode="L" horiz-adv-x="1374" d="M123 0v51h190v1331h-190v52h592v-52h-193v-1331h297q98 0 176 33q76 31 129 106q55 76 82 162q25 80 37 189h62l-23 -541h-1159z" />
<glyph unicode="M" horiz-adv-x="1812" d="M102 0v51h203v1331h-203v52h484l348 -1100l364 1100h435v-52h-193v-1331h193v-51h-592v51h190v1280h-4l-453 -1360h-59l-426 1344q-10 31 -10 67h-8v-1331h202v-51h-471z" />
<glyph unicode="N" horiz-adv-x="1525" d="M102 0v51h203v1331h-203v52h498l610 -1004v952h-204v52h473v-52h-205v-1411h-60l-821 1352q-16 25 -16 59h-6v-1331h202v-51h-471z" />
<glyph unicode="O" horiz-adv-x="1617" d="M145 713q0 129 39 256q35 113 105 209q63 88 151 153q86 63 189 99q98 33 204.5 32.5t204.5 -32.5q102 -35 189 -99q92 -70 153 -153q70 -96 105 -209q37 -121 37 -256q0 -172 -58 -312q-59 -145 -155.5 -235t-221.5 -143q-121 -51 -254 -51.5t-253.5 51t-219.5 143.5 q-96 90 -155 235q-60 144 -60 312zM381 713q0 -340 116.5 -514t336 -174t335.5 174q119 178 119 514q0 342 -119 518q-121 178 -336 178t-335 -178q-117 -174 -117 -518z" />
<glyph unicode="P" horiz-adv-x="1361" d="M123 0v51h190v1331h-190v52h625q96 0 188 -27q86 -25 156 -78q190 -147 190 -362q0 -172 -121 -277q-117 -102 -303 -102h-336v-537h193v-51h-592zM522 639h316q51 0 90 18.5t63 44.5q20 25 39 74q16 47 23 94q6 49 6 110.5t-8 104.5q-10 53 -27 101q-18 49 -57 96 q-37 43 -90 72q-57 29 -166 28h-189v-743z" />
<glyph unicode="Q" horiz-adv-x="1617" d="M145 713q0 129 39 256q35 113 105 209q63 88 151 153q86 63 189 99q98 33 204.5 32.5t204.5 -32.5q102 -35 189 -99q92 -70 153 -153q70 -96 105 -209q37 -121 37 -256q0 -172 -58 -312q-59 -145 -155.5 -235t-221.5 -143q-121 -51 -253 -52q-16 0 -46 4l-2 -4 q31 -18 62 -49q43 -43 133 -55q76 -8 139 -45q59 -35 105 -101q33 -51 55 -75q14 -16 55 -43q49 -31 123 -31q57 0 125 27l19 -50q-80 -31 -191 -30q-117 0 -237.5 24.5t-182.5 67.5q-106 74 -162 203q-20 45 -26 57q-8 18 -35 51q-20 25 -49 45q-29 18 -64 29 q-96 27 -190 88q-98 63 -164 147q-70 88 -113 213.5t-43 268.5zM381 713q0 -340 116.5 -514t336 -174t335.5 174q119 178 119 514q0 342 -119 518q-121 178 -336 178t-335 -178q-117 -174 -117 -518z" />
<glyph unicode="R" horiz-adv-x="1488" d="M123 0v51h190v1331h-190v52h602q119 0 203 -29q92 -31 139 -82q49 -53 74 -113q25 -61 24 -127q0 -131 -75.5 -208.5t-206.5 -108.5v-12q156 -25 233 -107q80 -82 80 -192v-219q0 -102 35 -147.5t117 -45.5q49 0 118 25l13 -52q-98 -33 -209 -32q-49 0 -94 12 q-47 12 -90.5 36.5t-71.5 78.5q-27 51 -27 125v233q0 117 -59 190q-61 76 -183 76h-223v-684h193v-51h-592zM522 788h256q55 0 90 21q37 22 56 61q20 47 26 86q8 61 8 109q0 49 -14 113q-12 53 -41 102q-27 45 -78 73.5t-114 28.5h-189v-594z" />
<glyph unicode="S" horiz-adv-x="1271" d="M188 475h43q27 -150 113 -266q68 -92 152 -137q86 -47 194 -47q156 0 240 75q86 76 86 211q0 127 -88 209q-84 78 -277 129q-82 20 -127 39q-63 25 -112 53q-55 33 -95 74q-33 37 -61 103q-25 57 -25 131q0 184 115 298.5t318 114.5q90 0 163.5 -30.5t102.5 -30.5 q41 0 53 61h45l4 -370h-45q-35 102 -94 188q-37 55 -104.5 92t-137.5 37q-131 0 -205 -72q-78 -74 -77 -176q0 -51 20 -92q20 -39 53 -70q27 -25 84 -51q49 -23 95 -37q12 -4 46.5 -13t55.5 -15q109 -31 186 -68q86 -41 138 -90q61 -59 88 -131q29 -80 28 -178 q0 -199 -137 -322t-340 -123q-123 0 -250 64q-55 27 -80 26q-49 0 -67 -18q-23 -23 -47 -72h-43z" />
<glyph unicode="T" horiz-adv-x="1562" d="M133 846l25 588h1308l25 -588h-53q-23 246 -111 375q-106 162 -283 161h-129v-1331h193v-51h-592v51h193v1331h-129q-176 0 -283 -161q-88 -129 -111 -375h-53z" />
<glyph unicode="U" horiz-adv-x="1538" d="M88 1382v52h592v-52h-193v-1058q0 -84 25 -145.5t70 -94.5q37 -29 100 -45q51 -14 125 -14q190 0 303 100q115 102 115 289v968h-205v52h473v-52h-205v-976q0 -211 -129 -322q-131 -113 -352 -113q-526 0 -526 465v946h-193z" />
<glyph unicode="V" horiz-adv-x="1533" d="M68 1382v52h671v-52h-250l394 -1056l346 1056h-211v52h495v-52h-217l-462 -1411h-60l-524 1411h-182z" />
<glyph unicode="W" horiz-adv-x="2158" d="M68 1382v52h596v-52h-203l362 -1069l299 869l-67 200h-168v52h596v-52h-197l348 -1042l303 1042h-219v52h422v-52h-143l-412 -1411h-59l-375 1121l-385 -1121h-59l-482 1411h-157z" />
<glyph unicode="X" horiz-adv-x="1564" d="M72 0v51h217l418 662l-424 669h-211v52h716v-52h-251l297 -471l299 471h-205v52h487v-52h-217l-332 -524l512 -807h156v-51h-721v51h313l-385 608l-387 -608h269v-51h-551z" />
<glyph unicode="Y" horiz-adv-x="1460" d="M68 1382v52h671v-52h-239l362 -665l332 665h-213v52h461v-52h-182l-363 -735v-596h190v-51h-591v51h192v541l-430 790h-190z" />
<glyph unicode="Z" horiz-adv-x="1398" d="M160 922l43 512h1022v-43l-795 -1340h391q92 0 176 43q86 45 131 115q53 80 76 137q18 49 45 166h54l-23 -512h-1106v47l793 1335h-353q-96 0 -161 -32q-68 -33 -117 -109q-47 -70 -74 -137q-23 -55 -49 -182h-53z" />
<glyph unicode="[" horiz-adv-x="778" d="M231 -520v2015h453v-51h-305v-1913h305v-51h-453z" />
<glyph unicode="\" horiz-adv-x="720" d="M80 1434h102l459 -1954h-100z" />
<glyph unicode="]" horiz-adv-x="778" d="M96 -469h305v1913h-305v51h453v-2015h-453v51z" />
<glyph unicode="^" d="M43 735l485 727h97l485 -727h-172l-418 627l-418 -627h-59z" />
<glyph unicode="_" horiz-adv-x="1024" d="M0 -256h1024v-96h-1024v96z" />
<glyph unicode="`" horiz-adv-x="878" d="M260 1397q0 29 18.5 47t51.5 18q66 0 102 -100l107 -291l-33 -16l-195 233q-51 60 -51 109z" />
<glyph unicode="&#x2cb;" horiz-adv-x="878" d="M260 1397q0 29 18.5 47t51.5 18q66 0 102 -100l107 -291l-33 -16l-195 233q-51 60 -51 109z" />
<glyph unicode="a" horiz-adv-x="989" d="M113 193q0 121 65 180q65 58 184 73q78 10 134 31q51 20 110 58v104q0 41 -8 72q-10 37 -26.5 67.5t-55.5 52.5q-35 20 -90 20.5t-104 -26.5q-47 -25 -48 -65q0 -25 14.5 -53.5t14.5 -63.5q0 -29 -20 -49q-23 -23 -64 -23q-45 0 -72 27q-23 23 -22 68q0 94 90 163.5 t221 69.5q174 0 254 -92t80 -246v-401q0 -61 29 -90q27 -27 71 -27q31 0 64 6l8 -51q-45 -14 -86 -14q-96 0 -154 32q-59 35 -86 125h-8q-51 -76 -108 -116q-59 -41 -154 -41q-102 0 -170 57q-63 56 -63 152zM287 209q0 -154 141 -154q51 0 98 41q45 39 80 103v288 q-55 -35 -90 -47q-45 -16 -125 -37q-104 -26 -104 -194z" />
<glyph unicode="b" horiz-adv-x="1148" d="M78 0v47h141v1401h-141v47h307v-772l12 -2q106 178 287 178q102 0 182 -49q88 -55 138 -160q51 -109 51 -248t-51 -247q-49 -104 -138 -160q-84 -51 -182 -51q-180 0 -287 180l-12 -2v-162h-307zM385 442q0 -176 74 -286q76 -113 172 -113q82 0 139 57.5t78 141.5 q23 90 22.5 200.5t-22.5 200.5q-20 84 -78 141q-55 55 -139 56q-98 0 -172 -111t-74 -287z" />
<glyph unicode="c" horiz-adv-x="942" d="M96 432q0 94 33 178t92 150q61 68 139 102q82 37 175 37q78 0 131 -22q61 -27 94 -62t51 -76q18 -39 18 -75q0 -51 -26.5 -86t-77.5 -35q-43 0 -61 18q-23 23 -23 53q0 25 14 68q12 35 12.5 72t-34.5 67.5t-107 30.5q-117 0 -182 -109q-63 -106 -63 -282 q0 -193 69.5 -305.5t204.5 -112.5q53 0 96 18q49 20 70 48q27 33 43 69q18 41 24 76q8 49 9 76h51q0 -35 -8 -92q-4 -35 -31 -91q-25 -53 -55 -84q-37 -37 -92 -57q-61 -23 -136 -22q-190 0 -311 125q-119 120 -119 323z" />
<glyph unicode="d" horiz-adv-x="1138" d="M96 442.5q0 143.5 49.5 248t139.5 159.5q80 49 180 49q180 0 287 -178l14 2v725h-207v47h371v-1448h141v-47h-305v162l-14 2q-106 -180 -287 -180q-96 0 -180 51q-90 55 -139.5 159.5t-49.5 248zM281 442.5q0 -110.5 22 -200.5q20 -84 77.5 -141.5t139.5 -57.5 q94 0 170 113q76 115 76 286.5t-76 286.5q-74 111 -170 111q-84 0 -139 -56q-57 -57 -78 -141q-22 -90 -22 -200.5z" />
<glyph unicode="e" horiz-adv-x="960" d="M96 430q0 133 51.5 237.5t151.5 170.5q94 61 229 61q80 0 147.5 -30.5t108.5 -82.5q43 -53 64 -108q23 -61 22 -119q0 -41 -16 -61q-14 -18 -57 -19h-516q0 -432 274 -432q109 0 176 72q63 68 80 180h53q-3 -58 -24 -111q-23 -55 -62 -100q-43 -49 -104 -76 q-68 -29 -148 -28q-184 0 -309 125q-121 120 -121 321zM281 528h350q43 0 55 23q12 22 12 74q0 90 -47 159q-45 68 -143 68q-41 0 -86 -21q-39 -18 -64 -49q-23 -29 -43 -75q-12 -27 -24 -89q-6 -31 -10 -90z" />
<glyph unicode="f" horiz-adv-x="696" d="M84 836v49h145v69q0 219 90 363q57 90 136 141q80 53 166 53q92 0 151 -47q61 -49 62 -133q0 -59 -29 -94t-70 -35q-76 0 -76 72q0 27 9 59q8 27 8 53q0 35 -17 58q-14 20 -63 20q-84 0 -143 -104q-59 -106 -60 -303v-172h217v-49h-217v-789h144v-47h-449v47h141v789 h-145z" />
<glyph unicode="g" horiz-adv-x="1159" d="M127 -377q0 74 53 133q49 55 162 113v6q-10 0 -39 4q-16 2 -49 12q-31 8 -53 29q-20 18 -39 51t-19 82q0 94 47 172q45 76 129 115v4q-125 94 -124 240q0 137 104 227q102 88 254 88q84 0 154 -29q76 -33 122 -84q37 53 76 88q27 25 80 25q61 0 94 -35t33 -90 q0 -31 -18.5 -55.5t-46.5 -24.5q-31 0 -46 19q-14 16 -20 55q-4 37 -10 47q-8 14 -29 14q-47 0 -90 -67q57 -70 57 -178q0 -137 -104 -226q-106 -90 -252 -90q-108 0 -197 49q-133 -55 -133 -178q0 -49 37 -73.5t111 -24.5q51 0 159 14q106 14 162 15q137 0 205 -76t68 -207 q0 -172 -129 -295t-330 -123q-66 0 -135 17q-76 18 -121 43q-53 31 -88 79q-35 52 -35 115zM254 -381q0 -68 41 -113t94 -59q59 -16 127 -16q83 0 148 24q59 23 100 70q35 39 53 94q18 53 19 107q0 37 -9 63q-8 25 -32 57q-23 29 -60 43q-43 16 -94 17q-63 0 -229 -29 q-80 -53 -117 -110q-41 -64 -41 -148zM358 584q0 -133 54 -201q55 -72 141 -72q84 0 139 72q53 68 53 201q0 131 -53 202q-55 74 -139 74q-86 0 -141 -74q-54 -71 -54 -202z" />
<glyph unicode="h" horiz-adv-x="1165" d="M78 0v47h141v1401h-141v47h307v-821l10 -2q49 113 129 170q78 57 185 57q127 0 192 -84q63 -76 64 -207v-561h141v-47h-449v47h144v596q0 184 -164 184q-66 0 -115 -43q-53 -47 -82 -106q-31 -59 -45 -125q-10 -49 -10 -141v-365h141v-47h-448z" />
<glyph unicode="i" horiz-adv-x="598" d="M84 0v47h141v789h-141v49h305v-838h143v-47h-448zM186 1358q0 51 37 88q35 35 88.5 35t88 -34.5t34.5 -88t-35 -88.5q-37 -37 -88 -37t-88 37t-37 88z" />
<glyph unicode="j" horiz-adv-x="579" d="M-115 -403q0 59 29 91.5t72 32.5q34 0 55 -18q20 -18 20 -55q0 -25 -10 -66q-8 -39 -8 -69q0 -47 20 -70q23 -25 64 -25q63 0 88 66q23 59 23 186v1166h-142v49h305v-1045q0 -221 -77 -344q-80 -125 -213 -125q-88 0 -158 64q-68 62 -68 162zM184 1358q0 51 37 88 q35 35 88.5 35t88 -34.5t34.5 -88t-35 -88.5q-37 -37 -88 -37t-88 37t-37 88z" />
<glyph unicode="k" horiz-adv-x="1155" d="M78 0v47h141v1401h-141v47h307v-999h84l274 340h-145v49h354v-49h-143l-209 -256l379 -533h125v-47h-496v47h164l-278 402h-109v-402h141v-47h-448z" />
<glyph unicode="l" horiz-adv-x="593" d="M78 0v47h141v1401h-141v47h307v-1448h141v-47h-448z" />
<glyph unicode="m" horiz-adv-x="1703" d="M84 0v47h141v789h-141v49h305v-203l10 -2q98 219 289 219q59 0 103 -20q47 -23 73 -58q29 -39 43 -71q12 -29 23 -74h12q92 223 289 223q68 0 123 -25q53 -25 86 -69q33 -47 47 -90q14 -45 14 -97v-571h144v-47h-449v47h141v594q0 83 -43 135q-43 51 -123 51 q-57 0 -104 -39q-51 -41 -78 -100q-20 -39 -31 -90q-10 -55 -10 -86q0 -10 -1 -43t-1 -57v-365h141v-47h-448v47h143v580q0 201 -147 200q-123 0 -189 -133q-31 -59 -45 -131q-12 -63 -12 -151v-365h143v-47h-448z" />
<glyph unicode="n" horiz-adv-x="1171" d="M84 0v47h141v789h-141v49h305v-211l12 -2q49 113 129 170q78 57 185 57q127 0 192 -84q63 -76 64 -207v-561h141v-47h-448v47h143v596q0 184 -166 184q-63 0 -113 -43q-53 -47 -82 -106q-31 -59 -45 -125q-12 -58 -12 -141v-365h143v-47h-448z" />
<glyph unicode="o" horiz-adv-x="1038" d="M96 442.5q0 198.5 123 327.5t301 129t301 -129t123 -327.5t-123 -327.5q-125 -131 -301 -131t-301 131q-123 129 -123 327.5zM281 442q0 -217 59 -311q61 -98 180 -98t180 98q59 94 59.5 311t-59.5 312q-61 98 -180 98t-180 -98q-59 -95 -59 -312z" />
<glyph unicode="p" horiz-adv-x="1138" d="M68 -563h143v1399h-143v49h307v-162l12 -2q106 178 289 178q100 0 180 -49q90 -55 139 -159.5t49 -248t-49 -248t-139 -159.5q-84 -51 -180 -51q-182 0 -289 180l-12 -2v-725h205v-49h-512v49zM375 442q0 -176 74 -286q76 -113 172 -113q82 0 139 57.5t78 141.5 q23 90 22.5 200.5t-22.5 200.5q-20 84 -78 141q-55 55 -139 56q-98 0 -172 -111t-74 -287z" />
<glyph unicode="q" horiz-adv-x="1138" d="M96 442.5q0 143.5 49.5 248t139.5 159.5q80 49 180 49q162 0 266 -147h8l80 133h252v-49h-141v-1399h141v-49h-512v49h207v725l-14 2q-106 -180 -287 -180q-96 0 -180 51q-90 55 -139.5 159.5t-49.5 248zM281 442.5q0 -110.5 22 -200.5q20 -84 77.5 -141.5t139.5 -57.5 q94 0 170 113q76 115 76 286.5t-76 286.5q-74 111 -170 111q-84 0 -139 -56q-57 -57 -78 -141q-22 -90 -22 -200.5z" />
<glyph unicode="r" horiz-adv-x="882" d="M84 0v47h141v789h-141v49h305v-211l10 -2q53 125 110.5 176t152.5 51q72 0 114 -45q43 -47 43 -115q0 -53 -26.5 -92t-73.5 -39q-29 0 -45 15q-18 16 -19 41q0 23 11 67q6 35 6 57q0 55 -62 56q-53 0 -90 -37q-35 -35 -69 -105q-61 -121 -62 -290v-365h143v-47h-448z" />
<glyph unicode="s" horiz-adv-x="839" d="M127 -16v348h35q23 -72 43 -115q25 -51 51 -92q33 -49 74 -70q45 -23 94 -22q106 0 158 37q55 41 55 112.5t-53 114.5q-51 43 -193 86q-74 25 -106 41q-45 23 -82 53.5t-56 77.5q-20 51 -20 109q0 106 72 172q70 63 166 63q70 0 153 -31q37 -14 57 -14q49 0 74 45h35 v-281h-39q-31 82 -72 140q-39 51 -86 71q-51 23 -129 23q-58 0 -92 -37q-35 -39 -35 -86q0 -29 11 -55q8 -20 26 -43q8 -10 49 -33q43 -23 62 -31q10 -4 40 -13t44 -15q160 -55 227 -117q66 -59 66 -170q0 -121 -80 -194.5t-248 -73.5q-63 0 -141 22q-45 14 -84 14 q-31 0 -43 -36h-33z" />
<glyph unicode="t" horiz-adv-x="768" d="M55 836v49h174v194q63 0 86 8q20 8 31 33q10 31 22.5 37t47.5 6q-25 -166 -25 -278h230v-49h-230v-646q0 -68 29 -96q27 -27 86 -26q63 0 96 61q33 59 39 143h49q-2 -49 -20 -106q-14 -45 -43 -90q-28 -43 -74 -68q-45 -25 -107 -24q-43 0 -79 12q-45 14 -70 35 q-33 27 -49 65q-18 43 -19 101v639h-174z" />
<glyph unicode="u" horiz-adv-x="1155" d="M59 836v49h308v-645q0 -184 163 -185q63 0 113 43q51 45 82 109q31 59 45 125q12 57 12 139v365h-143v49h307v-838h141v-47h-305v211l-12 2q-49 -113 -129 -170q-82 -59 -182 -59q-127 0 -195 86q-61 74 -61 206v560h-144z" />
<glyph unicode="v" horiz-adv-x="978" d="M41 836v49h434v-49h-141l237 -611l220 611h-129v49h282v-49h-102l-310 -854h-43l-331 854h-117z" />
<glyph unicode="w" horiz-adv-x="1497" d="M41 836v49h434v-49h-141l219 -611l197 502l-39 109h-117v49h436v-49h-141l215 -596l205 596h-129v49h282v-49h-102l-295 -854h-43l-248 680l-266 -680h-45l-305 854h-117z" />
<glyph unicode="x" horiz-adv-x="1099" d="M59 0v55h166l252 361l-266 411h-119v58h457v-58h-146l175 -270l190 270h-125v58h320v-58h-136l-221 -315l293 -457h166v-55h-528v55h174l-205 316l-221 -316h155v-55h-381z" />
<glyph unicode="y" horiz-adv-x="1024" d="M-6 -465q0 47 29 80q27 31 77 31q35 0 55.5 -20.5t20.5 -47.5q0 -25 -8 -51.5t-8 -50.5q0 -49 67 -49q53 0 86 45q35 49 60 122l133 388l-348 854h-117v49h457v-49h-162l252 -621l215 621h-123v49h307v-49h-129l-432 -1244q-10 -31 -23 -63q-8 -23 -30 -57 q-23 -37 -43 -54q-23 -20 -60 -34q-35 -14 -80 -15q-86 0 -141 43t-55 123z" />
<glyph unicode="z" horiz-adv-x="933" d="M84 580l22 305h660v-56l-461 -782h225q137 0 209 125q51 84 72 207h43l-14 -379h-719v55l459 781h-211q-53 0 -97 -17q-41 -16 -73 -57q-45 -57 -72 -182h-43z" />
<glyph unicode="{" horiz-adv-x="778" d="M182 467v43q233 0 234 223q0 66 -39 225q-41 168 -41 250q0 131 94 209q90 76 252 94l10 -53q-109 -18 -168 -55q-55 -35 -55 -117q0 -90 37 -235q41 -160 41 -236q0 -143 -64 -221q-68 -84 -164 -105v-4q98 -20 164 -102q63 -78 64 -223q0 -76 -41 -236 q-37 -145 -37 -235q0 -78 55.5 -115t167.5 -55l-10 -56q-162 18 -252 95q-94 78 -94 209q0 84 41 251q39 160 39 226q-1 223 -234 223z" />
<glyph unicode="|" horiz-adv-x="512" d="M203 -520v1954h106v-1954h-106z" />
<glyph unicode="}" horiz-adv-x="778" d="M88 -481q109 18 168 55q55 35 55 115q0 90 -37 235q-41 160 -41 236q0 145 64 223q66 82 164 102v4q-96 20 -164 105q-63 78 -64 223q0 76 41 236q37 143 37 235q0 78 -55 115t-168 55l10 53q162 -18 252 -94q94 -78 94 -209q0 -82 -41 -250q-39 -160 -38 -225 q0 -223 233 -223v-43q-233 0 -233 -223q0 -66 38 -226q41 -168 41 -251q0 -131 -94 -209q-90 -76 -252 -95z" />
<glyph unicode="~" d="M113 422q129 209 307 209q40 0 80 -13q53 -16 65 -22l64 -33q10 -6 28.5 -15l26.5 -13q22 -9 55 -19q37 -10 64 -10q68 0 110 31q41 29 91 98l36 -29q-129 -209 -309 -209q-55 0 -102 19q-46 18 -105 49q-106 57 -174 57q-70 0 -112 -30q-41 -29 -91 -99z" />
<glyph unicode="&#xa2;" d="M197 -551l206 594q-98 57 -149 156q-53 102 -53 233q0 94 32.5 178t92.5 150q61 68 139 102q84 37 174 37q41 0 61 -4l191 539h61l-194 -553q86 -33 131 -95q45 -63 45 -122q0 -51 -26.5 -86t-80.5 -35q-41 0 -59 18q-23 23 -23 53q0 25 15 68q12 35 12 72q0 39 -35 67 l-248 -710q68 -68 170 -68q53 0 97 18q45 20 67 48q31 39 45 69q18 41 25 76q6 37 6 76h53q0 -35 -8 -92q-4 -35 -31 -91q-23 -49 -57 -84q-37 -37 -92 -57q-61 -23 -133 -22q-88 0 -174 32l-199 -567h-61zM385 461q0 -190 61 -293l238 678q-20 6 -53 6q-117 0 -182 -109 q-64 -106 -64 -282z" />
<glyph unicode="&#xa3;" horiz-adv-x="1419" d="M68 137q0 78 57 123t139 45q78 0 135 -14q82 -20 156 -45q18 43 18 102q0 164 -53 318h-307v63h293q-20 90 -21 184q0 154 74 277q76 125 203 192q129 68 285 68q119 0 200 -70q80 -68 80 -174q0 -92 -55 -149q-55 -59 -125 -60q-57 0 -100 31t-43 86q0 45 28 70 q31 27 64 26q43 0 69 -30q23 -27 45 -27q18 0 35 23q14 20 15 65q0 61 -56 111q-57 51 -162 51q-137 0 -204 -103q-72 -106 -93 -294q-10 -72 -16 -277h313v-63h-317q-10 -172 -27 -258q-18 -96 -63 -191q174 -53 338 -53q70 0 115 39t45 92q0 68 -43 111l38 30 q31 -31 51.5 -74t20.5 -94q0 -125 -67.5 -204.5t-196.5 -79.5q-55 0 -111 10q-45 8 -100 33q-47 20 -78 39l-84 53q-125 -135 -305 -135q-78 0 -135 41q-55 40 -55 112zM131 139q0 -55 39 -82q37 -25 86 -24q80 0 143.5 32.5t106.5 92.5q-76 49 -135 75q-55 25 -115 25 q-53 0 -88 -35q-37 -37 -37 -84z" />
<glyph unicode="&#xa5;" d="M25 1386v48h436v-48h-144l301 -581l304 581h-136v48h318v-48h-127l-307 -593h319v-66h-332v-186h332v-66h-332v-428h144v-47h-449v47h142v428h-334v66h334v153l-19 33h-315v66h282l-307 593h-110z" />
<glyph unicode="&#xa9;" horiz-adv-x="1671" d="M63 743q0 157 62 301q61 143 163.5 246t248.5 164q143 61 299 62q157 0 301 -62q143 -61 245.5 -163.5t163.5 -246.5t62 -301q0 -154 -61.5 -299t-164 -247.5t-245.5 -163.5q-144 -61 -301 -62q-156 0 -299 62q-145 61 -248 163.5t-164.5 247.5t-61.5 299zM127 743 q0 -137 57 -274q53 -127 151.5 -225.5t225.5 -151.5q131 -55 274.5 -55t274.5 55t227 152q98 98 152 225q55 133 55 274q0 144 -55 277q-53 127 -152 225q-96 96 -227 151.5t-274.5 55.5t-274.5 -55q-127 -53 -225 -151.5t-152 -225.5q-57 -138 -57 -277zM391 743 q0 111 39 197q43 96 102 150q66 59 144 91.5t166 32.5q82 0 168 -32q49 -20 71 -21q37 0 49 53h27v-323h-35q-25 102 -73 170q-74 104 -207 104q-131 0 -199 -106q-68 -109 -68 -315.5t68 -315.5q68 -106 199 -106q133 0 207 104q49 68 73 172h35v-324h-27q-12 53 -49 54 q-23 0 -71 -21q-86 -33 -168 -33q-88 0 -166 33t-144 92q-59 53 -102 150q-39 85 -39 194z" />
<glyph unicode="&#xad;" horiz-adv-x="899" d="M135 346v131h629v-131h-629z" />
<glyph unicode="&#xae;" horiz-adv-x="1671" d="M63 743q0 157 62 301q61 143 163.5 246t248.5 164q143 61 299 62q157 0 301 -62q143 -61 245.5 -163.5t163.5 -246.5t62 -301q0 -154 -61.5 -299t-164 -247.5t-245.5 -163.5q-144 -61 -301 -62q-156 0 -299 62q-145 61 -248 163.5t-164.5 247.5t-61.5 299zM127 743 q0 -137 57 -274q53 -127 151.5 -225.5t225.5 -151.5q131 -55 274.5 -55t274.5 55t227 152q98 98 152 225q55 133 55 274q0 144 -55 277q-53 127 -152 225q-96 96 -227 151.5t-274.5 55.5t-274.5 -55q-127 -53 -225 -151.5t-152 -225.5q-57 -138 -57 -277zM414 301v49h141 v789h-141v47h456q150 0 221.5 -63.5t71.5 -151.5q0 -90 -59 -137q-55 -43 -172 -60v-10q115 -16 172 -64q59 -49 59 -114v-129q0 -66 21 -88q23 -27 71 -27q31 0 68 16l14 -41q-68 -31 -145 -30q-23 0 -64 8q-27 6 -61 22q-31 14 -49 48q-18 31 -19 75v144q0 68 -36.5 114.5 t-108.5 46.5h-133v-395h141v-49h-448zM721 795h147q63 0 97 45q35 47 34 114q0 78 -34 129q-37 55 -111 56h-133v-344z" />
<glyph unicode="&#xb4;" horiz-adv-x="878" d="M342 1071l107 291q37 100 102 100q33 0 51.5 -18.5t18.5 -46.5q0 -49 -52 -109l-194 -233z" />
<glyph unicode="&#x2ca;" horiz-adv-x="878" d="M342 1071l107 291q37 100 102 100q33 0 51.5 -18.5t18.5 -46.5q0 -49 -52 -109l-194 -233z" />
<glyph unicode="&#x131;" horiz-adv-x="598" d="M84 0v47h141v789h-141v49h305v-838h143v-47h-448z" />
<glyph unicode="&#x237;" horiz-adv-x="579" d="M-115 -403q0 59 29 91.5t72 32.5q34 0 55 -18q20 -18 20 -55q0 -25 -10 -66q-8 -39 -8 -69q0 -47 20 -70q23 -25 64 -25q63 0 88 66q23 59 23 186v1166h-142v49h305v-1045q0 -221 -77 -344q-80 -125 -213 -125q-88 0 -158 64q-68 62 -68 162z" />
<glyph unicode="&#x2d9;" horiz-adv-x="878" d="M315 1206q0 51 37 88q35 35 88.5 35t88 -34.5t34.5 -88t-35 -88.5q-37 -37 -88 -37t-88 37t-37 88z" />
<glyph unicode="&#x2000;" horiz-adv-x="782" />
<glyph unicode="&#x2001;" horiz-adv-x="1566" />
<glyph unicode="&#x2002;" horiz-adv-x="782" />
<glyph unicode="&#x2003;" horiz-adv-x="1566" />
<glyph unicode="&#x2004;" horiz-adv-x="520" />
<glyph unicode="&#x2005;" horiz-adv-x="391" />
<glyph unicode="&#x2006;" horiz-adv-x="260" />
<glyph unicode="&#x2007;" horiz-adv-x="260" />
<glyph unicode="&#x2008;" horiz-adv-x="194" />
<glyph unicode="&#x2009;" horiz-adv-x="311" />
<glyph unicode="&#x200a;" horiz-adv-x="86" />
<glyph unicode="&#x2010;" horiz-adv-x="899" d="M135 346v131h629v-131h-629z" />
<glyph unicode="&#x2011;" horiz-adv-x="899" d="M135 346v131h629v-131h-629z" />
<glyph unicode="&#x2012;" horiz-adv-x="899" d="M135 346v131h629v-131h-629z" />
<glyph unicode="&#x2013;" horiz-adv-x="1054" d="M12 373v96h1032v-96h-1032z" />
<glyph unicode="&#x2014;" horiz-adv-x="2095" d="M12 373v96h2073v-96h-2073z" />
<glyph unicode="&#x2018;" horiz-adv-x="526" d="M127 1110q0 90 37 174q37 82 123 168l32 -31q-63 -70 -100 -133q-33 -57 -33 -137q0 -39 37 -39q14 0 37 16q29 16 45 17q100 0 101 -105q0 -52 -37 -86q-35 -33 -86 -32q-49 0 -76 16q-33 20 -47 47q-20 41 -25 62q-8 40 -8 63z" />
<glyph unicode="&#x2019;" horiz-adv-x="526" d="M123 1331q0 53 37 88q35 33 86 33q43 0 73 -18q37 -23 50 -48q20 -43 24 -59q6 -31 6 -63q0 -98 -34.5 -176t-122.5 -166l-33 28q63 70 100 133q33 57 33 140q0 37 -37 37q-18 0 -39 -15q-29 -16 -45 -16q-98 0 -98 102z" />
<glyph unicode="&#x201c;" horiz-adv-x="899" d="M500 1110q0 90 37 174q37 82 123 168l32 -31q-63 -70 -100 -133q-33 -57 -33 -137q0 -39 37 -39q14 0 37 16q29 16 45 17q100 0 101 -105q0 -52 -37 -86q-35 -33 -86 -32q-49 0 -76 16q-33 20 -47 47q-20 41 -25 62q-8 40 -8 63zM127 1110q0 90 37 174q37 82 123 168 l32 -31q-63 -70 -100 -133q-33 -57 -33 -137q0 -39 37 -39q14 0 37 16q29 16 45 17q100 0 101 -105q0 -52 -37 -86q-35 -33 -86 -32q-49 0 -76 16q-33 20 -47 47q-20 41 -25 62q-8 40 -8 63z" />
<glyph unicode="&#x201d;" horiz-adv-x="899" d="M496 1331q0 53 37 88q35 33 86 33q43 0 73 -18q37 -23 50 -48q20 -43 24 -59q6 -31 6 -63q0 -98 -34.5 -176t-122.5 -166l-33 28q63 70 100 133q33 57 33 140q0 37 -37 37q-18 0 -39 -15q-29 -16 -45 -16q-98 0 -98 102zM123 1331q0 53 37 88q35 33 86 33q43 0 73 -18 q37 -23 50 -48q20 -43 24 -59q6 -31 6 -63q0 -98 -34.5 -176t-122.5 -166l-33 28q63 70 100 133q33 57 33 140q0 37 -37 37q-18 0 -39 -15q-29 -16 -45 -16q-98 0 -98 102z" />
<glyph unicode="&#x2022;" horiz-adv-x="1103" d="M324 688q0 98 65 164q63 63 164 63q98 0 162 -63q66 -66 65.5 -164t-65.5 -164q-63 -63 -162 -63q-100 0 -164 63q-65 66 -65 164z" />
<glyph unicode="&#x2026;" horiz-adv-x="1583" d="M1192 104q0 53 37 90t92 37q53 0 90 -36.5t37 -90.5q0 -55 -37 -92t-90 -37q-55 0 -92 37t-37 92zM663 104q0 53 37 90t92 37q53 0 90 -36.5t37 -90.5q0 -55 -37 -92t-90 -37q-55 0 -92 37t-37 92zM135 104q0 53 37 90t92 37q53 0 90 -36.5t37 -90.5q0 -55 -37 -92 t-90 -37q-55 0 -92 37t-37 92z" />
<glyph unicode="&#x202f;" horiz-adv-x="311" />
<glyph unicode="&#x205f;" horiz-adv-x="391" />
<glyph unicode="&#x20ac;" horiz-adv-x="1599" d="M111 807l16 111h197q55 258 245 413q193 158 430 158q144 0 265 -55q125 -57 198 -129l-41 -119q-109 100 -202 143q-100 47 -220 47q-197 0 -344 -129q-145 -127 -198 -329h870l-37 -111h-854q-4 -45 -4 -78q0 -31 4 -76h801l-39 -110h-741q53 -203 198 -330 q147 -129 344 -129q229 0 428 190v-139q-82 -74 -188 -119t-240 -45q-238 0 -430 158q-190 156 -245 414h-205l16 110h172q-4 49 -4 76q0 29 4 78h-196z" />
<glyph unicode="&#x2122;" horiz-adv-x="2213" d="M84 1130l18 365h836l18 -365h-41q-12 143 -65 222q-66 96 -170 96h-78v-789h141v-47h-446v47h141v789h-78q-104 0 -170 -96q-53 -76 -65 -222h-41zM1024 612v47h133v789h-133v47h340l225 -641l236 641h321v-47h-141v-789h141v-47h-448v47h141v734h-2l-297 -807h-45 l-274 782q-8 43 -9 80h-4v-789h133v-47h-317z" />
<glyph unicode="&#xe000;" horiz-adv-x="885" d="M0 885h885v-885h-885v885z" />
<glyph unicode="&#xfb01;" horiz-adv-x="1183" d="M84 836v49h145v69q0 70 21 158q20 84 57 152q41 72 96 127q53 53 136 88q78 33 170 32q123 0 198 -57q74 -55 74 -145q0 -131 -121 -131q-33 0 -53.5 20.5t-20.5 56.5q0 20 13 76q10 37 10 55q0 35 -31 58q-29 20 -80 20q-152 0 -227 -127q-78 -131 -78 -348v-104h217 v-49h-217v-789h144v-47h-449v47h141v789h-145zM668 0v47h143v789h-143v49h307v-838h141v-47h-448z" />
<glyph unicode="&#xfb02;" horiz-adv-x="1167" d="M84 836v49h145v69q0 115 23 215q20 94 57 158q35 61 86 107q45 39 107 59q55 18 119 18q123 0 192 -84l109 84h36v-1464h142v-47h-449v47h144v1124q0 72 -9 115q-8 41 -28 90q-18 43 -57 65.5t-95 22.5q-100 0 -155 -98q-57 -102 -58 -301v-180h217v-49h-217v-789h144 v-47h-449v47h141v789h-145z" />
<glyph unicode="&#xfb03;" horiz-adv-x="1763" d="M84 836v49h145v94q0 111 25 203q25 94 65 151q45 63 99 103q51 37 114 57q58 18 123 18q203 0 275 -188h6q68 90 151.5 139t200.5 49q123 0 199 -57t76 -145q0 -131 -123 -131q-33 0 -53.5 20.5t-20.5 56.5q0 20 12 76q10 37 11 55q0 37 -27 57.5t-78 20.5 q-152 0 -231 -129q-78 -125 -78 -346v-104h215v-49h-215v-789h141v-47h-448v47h143v789h-147v49h147v61q0 100 31 205l-6 4q-14 -8 -29 -8q-41 0 -63.5 18.5t-22.5 57.5q0 29 22 77q20 39 21 78q0 37 -29 60q-33 27 -84 26.5t-92 -20.5q-47 -25 -82 -64q-41 -47 -61 -120 q-23 -80 -23 -183v-192h217v-49h-217v-789h144v-47h-449v47h141v789h-145zM1247 0v47h144v789h-144v49h307v-838h142v-47h-449z" />
<glyph unicode="&#xfb04;" horiz-adv-x="1746" d="M84 836v49h145v94q0 111 25 203q25 94 65 151q45 63 99 103q51 37 114 57q58 18 123 18q180 0 256 -147h4q96 147 285 147q123 0 193 -84l108 84h37v-1464h141v-47h-446v47h141v1124q0 72 -8 115q-8 41 -29 90q-18 43 -57 65.5t-92 22.5q-102 0 -157.5 -98t-55.5 -301 v-180h215v-49h-215v-789h141v-47h-448v47h143v789h-147v49h147v69q0 115 16 195q-8 -2 -20 -2q-41 0 -63.5 18.5t-22.5 57.5q0 29 22 77q20 39 21 78q0 37 -29 60q-33 27 -84 26.5t-92 -20.5q-47 -25 -82 -64q-41 -47 -61 -120q-23 -80 -23 -183v-192h217v-49h-217v-789h144 v-47h-449v47h141v789h-145z" />
</font>
</defs>
</svg>
